<svg xmlns="http://www.w3.org/2000/svg" width="44" height="26" fill="none"><path fill="#fff" d="M1.456 0h5.1c.646 0 1.15.43 1.365 1.006.646 1.867 2.082 5.96 3.734 8.762 2.227 3.663 3.663 5.028 4.597 4.884.934-.215.646-2.657.646-4.597 0-1.939.216-5.243-.718-6.751L14.744 1.22a.718.718 0 0 1 .574-1.15h8.188c.79 0 1.437.647 1.437 1.437v10.415s.359 1.867 2.37-.072c2.01-1.94 4.166-5.53 5.961-9.194l.718-1.723a1.419 1.419 0 0 1 1.293-.862H40.6c1.006 0 1.724 1.005 1.365 1.939l-.575 1.508s-1.94 3.879-3.95 6.608c-2.011 2.801-2.442 3.448-2.155 4.166.288.718 5.459 5.53 6.752 7.829.359.646.646 1.22.933 1.723.503.934-.215 2.155-1.293 2.155h-6.033c-.502 0-1.005-.287-1.22-.718l-.575-.934s-3.663-4.31-5.89-5.674c-2.298-1.293-2.226.575-2.226.575v3.806a2.881 2.881 0 0 1-2.873 2.873h-1.437s-7.9 0-14.22-9.409C2.245 9.193.594 4.453.02 1.724-.124.862.523 0 1.456 0Z"/></svg>